<svg xmlns="http://www.w3.org/2000/svg" viewBox="0 0 19.13 14.34"><defs><style>.cls-1{opacity:0.69;}.cls-2{fill:#666;}</style></defs><title>retweet</title><g id="Layer_2" data-name="Layer 2"><g id="Layer_1-2" data-name="Layer 1"><g class="cls-1"><g id="loop_alt1"><path class="cls-2" d="M15.54,7.17,12,10.76h2.39A1.19,1.19,0,0,1,13.15,12H6a1.19,1.19,0,0,1-1.2-1.19V9.56H2.39v1.2A3.58,3.58,0,0,0,6,14.34h7.17a3.58,3.58,0,0,0,3.59-3.58h2.39Z"/><path class="cls-2" d="M13.15,0H6A3.59,3.59,0,0,0,2.39,3.59v0H0L3.59,7.17,7.17,3.62H4.78v0A1.2,1.2,0,0,1,6,2.39h7.17a1.19,1.19,0,0,1,1.19,1.2V4.78h2.4V3.59A3.59,3.59,0,0,0,13.15,0Z"/></g></g></g></g></svg>