<svg xmlns="http://www.w3.org/2000/svg" viewBox="0 0 185.24 82.44"><defs><style>.cls-1{fill:#bcbfbf;}</style></defs><title>speech-marks</title><g id="Layer_2" data-name="Layer 2"><g id="Layer_1-2" data-name="Layer 1"><path class="cls-1" d="M32.3,42.56A11,11,0,0,1,31,48a11.28,11.28,0,0,1-3.44,3.86A16.43,16.43,0,0,1,23,54.15a15.67,15.67,0,0,1-4.71.78,15.46,15.46,0,0,1-6.46-1.48,19.52,19.52,0,0,1-5.9-4.21,20.56,20.56,0,0,1-4.28-6.68A22.64,22.64,0,0,1,0,33.85,30,30,0,0,1,3.16,19.6a36.26,36.26,0,0,1,7.58-10A41.2,41.2,0,0,1,19.8,3.3,57.46,57.46,0,0,1,27.53,0V4.64c-1.88,1.13-3.86,2.34-6,3.65a30.68,30.68,0,0,0-5.76,4.64,25.9,25.9,0,0,0-4.35,6,15.94,15.94,0,0,0-1.76,7.65q0,3.94,1.62,5.2A4.76,4.76,0,0,0,13.77,33a10.81,10.81,0,0,0,3.65-.84,11.8,11.8,0,0,1,4.21-.84,9.69,9.69,0,0,1,3.72.77,11.15,11.15,0,0,1,3.44,2.24,12,12,0,0,1,2.53,3.52A10.59,10.59,0,0,1,32.3,42.56ZM83,42.84a10.74,10.74,0,0,1-1.33,5.41,12.54,12.54,0,0,1-3.45,3.86,15.59,15.59,0,0,1-4.56,2.32,15.14,15.14,0,0,1-4.57.77,15.81,15.81,0,0,1-6.53-1.47,18.91,18.91,0,0,1-6-4.28,22.53,22.53,0,0,1-4.35-6.75A21.74,21.74,0,0,1,50.56,34a29.77,29.77,0,0,1,3.16-14.19,36.28,36.28,0,0,1,7.59-9.9,39.78,39.78,0,0,1,9.13-6.32A57.27,57.27,0,0,1,78.23.29V4.78q-2.81,1.68-6,3.65a30.54,30.54,0,0,0-5.75,4.64,23.92,23.92,0,0,0-4.29,6,16.73,16.73,0,0,0-1.68,7.58A11,11,0,0,0,61,30.06a5.51,5.51,0,0,0,1,2,3.75,3.75,0,0,0,1.27,1,2.65,2.65,0,0,0,1,.28,10.43,10.43,0,0,0,3.79-.91,11.4,11.4,0,0,1,4.22-.91,9.76,9.76,0,0,1,3.72.77,10.94,10.94,0,0,1,3.44,2.25A11.74,11.74,0,0,1,82,38.07,11.27,11.27,0,0,1,83,42.84Z"/><path class="cls-1" d="M134.4,48.45a30.17,30.17,0,0,1-3.16,14.26,36.24,36.24,0,0,1-7.59,10,38.82,38.82,0,0,1-9.06,6.24q-4.64,2.25-7.72,3.38V77.67c1.87-1.13,3.86-2.34,6-3.66a30.87,30.87,0,0,0,5.76-4.63,25.9,25.9,0,0,0,4.35-6,16.05,16.05,0,0,0,1.75-7.65c0-2.71-.54-4.48-1.61-5.27a4.93,4.93,0,0,0-2.46-1.2,10.87,10.87,0,0,0-3.65.85,12.06,12.06,0,0,1-4.21.84,10,10,0,0,1-3.73-.77A11.66,11.66,0,0,1,105.6,48a10.84,10.84,0,0,1-2.53-3.51,11.27,11.27,0,0,1-1-4.77,10.81,10.81,0,0,1,1.34-5.55,11.51,11.51,0,0,1,3.44-3.79,16.16,16.16,0,0,1,4.56-2.25,14.87,14.87,0,0,1,11.17.7,19.65,19.65,0,0,1,5.9,4.21,20.9,20.9,0,0,1,4.28,6.6A22.53,22.53,0,0,1,134.4,48.45Zm50.84.28a29.65,29.65,0,0,1-3.16,14.19,36.25,36.25,0,0,1-7.58,9.9,40.31,40.31,0,0,1-9.13,6.32,57.84,57.84,0,0,1-7.8,3.3V78c1.87-1.13,3.87-2.37,6-3.72a36.9,36.9,0,0,0,5.83-4.64,22.06,22.06,0,0,0,4.36-6A16.74,16.74,0,0,0,175.41,56a9.49,9.49,0,0,0-.49-3.37,6.49,6.49,0,0,0-1.12-2,3.85,3.85,0,0,0-1.27-1,2.65,2.65,0,0,0-1.05-.28,10.47,10.47,0,0,0-3.8.91,11.15,11.15,0,0,1-4.21.91,9.69,9.69,0,0,1-3.72-.77,10.77,10.77,0,0,1-3.44-2.25,11.81,11.81,0,0,1-2.53-3.58,11.13,11.13,0,0,1-1-4.78,10.71,10.71,0,0,1,1.33-5.41,12.36,12.36,0,0,1,3.44-3.85,15.29,15.29,0,0,1,4.57-2.32,15.78,15.78,0,0,1,4.7-.78A16,16,0,0,1,173.37,29a18.48,18.48,0,0,1,5.9,4.21,22.65,22.65,0,0,1,4.29,6.67A22.34,22.34,0,0,1,185.24,48.73Z"/></g></g></svg>